<?xml version="1.0" encoding="iso-8859-1"?>
<!-- Uploaded to: SVG Repo, www.svgrepo.com, Generator: SVG Repo Mixer Tools -->
<svg version="1.1" id="Layer_1" xmlns="http://www.w3.org/2000/svg" xmlns:xlink="http://www.w3.org/1999/xlink" 
	 viewBox="0 0 512 512" xml:space="preserve">
<polygon style="fill:#D80027;" points="478.609,166.957 478.609,100.174 445.217,100.174 445.217,66.783 411.826,66.783 
	411.826,33.391 345.043,33.391 345.043,0 166.957,0 166.957,33.391 100.174,33.391 100.174,66.783 66.783,66.783 66.783,100.174 
	33.391,100.174 33.391,166.957 0,166.957 0,278.261 33.391,278.261 33.391,311.652 155.825,311.652 155.825,478.609 
	189.217,478.609 189.217,512 322.783,512 322.783,478.609 356.173,478.609 356.173,311.652 478.609,311.652 478.609,278.261 
	512,278.261 512,166.957 "/>
<g>
	<polygon style="fill:#FFFFFF;" points="222.609,155.826 189.217,155.826 189.217,122.435 133.565,122.435 133.565,155.826 
		100.174,155.826 100.174,211.478 133.565,211.478 133.565,244.87 189.217,244.87 189.217,211.478 222.609,211.478 	"/>
	<polygon style="fill:#FFFFFF;" points="378.435,33.391 345.043,33.391 345.043,0 256,0 256,33.391 222.609,33.391 222.609,122.435 
		256,122.435 256,155.826 345.043,155.826 345.043,122.435 378.435,122.435 	"/>
</g>
<polygon style="fill:#FFF5CC;" points="356.173,278.261 155.825,278.261 155.825,478.609 189.217,478.609 189.217,512 322.783,512 
	322.783,478.609 356.173,478.609 "/>
<rect x="66.783" y="66.783" width="33.391" height="33.391"/>
<polygon points="166.957,33.391 345.043,33.391 345.043,66.783 411.826,66.783 411.826,33.391 345.043,33.391 345.043,0 166.957,0 
	166.957,33.391 100.174,33.391 100.174,66.783 166.957,66.783 "/>
<polygon points="356.173,278.261 322.781,278.261 322.781,278.261 189.216,278.261 189.216,278.261 155.825,278.261 
	155.825,278.261 33.391,278.261 33.391,166.957 66.783,166.957 66.783,100.174 33.391,100.174 33.391,166.957 0,166.957 0,278.261 
	33.391,278.261 33.391,311.652 155.825,311.652 155.825,478.609 189.217,478.609 189.217,311.652 322.783,311.652 322.783,478.609 
	189.217,478.609 189.217,512 322.783,512 322.783,478.609 356.173,478.609 356.173,311.652 478.609,311.652 478.609,278.261 "/>
<polygon points="478.609,166.957 478.609,100.174 445.217,100.174 445.217,166.957 478.609,166.957 478.609,278.261 512,278.261 
	512,166.957 "/>
<rect x="411.826" y="66.783" width="33.391" height="33.391"/>
</svg>